<svg width="1020" height="1" viewBox="0 0 1020 1" fill="none" xmlns="http://www.w3.org/2000/svg">
<line y1="0.5" x2="4" y2="0.5" stroke="#D2D1D1"/>
<line x1="8" y1="0.5" x2="12" y2="0.5" stroke="#D2D1D1"/>
<line x1="16" y1="0.5" x2="20" y2="0.5" stroke="#D2D1D1"/>
<line x1="24" y1="0.5" x2="28" y2="0.5" stroke="#D2D1D1"/>
<line x1="32" y1="0.5" x2="36" y2="0.5" stroke="#D2D1D1"/>
<line x1="40" y1="0.5" x2="44" y2="0.5" stroke="#D2D1D1"/>
<line x1="48" y1="0.5" x2="52" y2="0.5" stroke="#D2D1D1"/>
<line x1="56" y1="0.5" x2="60" y2="0.5" stroke="#D2D1D1"/>
<line x1="64" y1="0.5" x2="68" y2="0.5" stroke="#D2D1D1"/>
<line x1="72" y1="0.5" x2="76" y2="0.5" stroke="#D2D1D1"/>
<line x1="80" y1="0.5" x2="84" y2="0.5" stroke="#D2D1D1"/>
<line x1="88" y1="0.5" x2="92" y2="0.5" stroke="#D2D1D1"/>
<line x1="96" y1="0.5" x2="100" y2="0.5" stroke="#D2D1D1"/>
<line x1="104" y1="0.5" x2="108" y2="0.5" stroke="#D2D1D1"/>
<line x1="112" y1="0.5" x2="116" y2="0.5" stroke="#D2D1D1"/>
<line x1="120" y1="0.5" x2="124" y2="0.5" stroke="#D2D1D1"/>
<line x1="128" y1="0.5" x2="132" y2="0.5" stroke="#D2D1D1"/>
<line x1="136" y1="0.5" x2="140" y2="0.5" stroke="#D2D1D1"/>
<line x1="144" y1="0.5" x2="148" y2="0.5" stroke="#D2D1D1"/>
<line x1="152" y1="0.5" x2="156" y2="0.5" stroke="#D2D1D1"/>
<line x1="160" y1="0.5" x2="164" y2="0.5" stroke="#D2D1D1"/>
<line x1="168" y1="0.5" x2="172" y2="0.5" stroke="#D2D1D1"/>
<line x1="176" y1="0.5" x2="180" y2="0.5" stroke="#D2D1D1"/>
<line x1="184" y1="0.5" x2="188" y2="0.5" stroke="#D2D1D1"/>
<line x1="192" y1="0.5" x2="196" y2="0.5" stroke="#D2D1D1"/>
<line x1="200" y1="0.5" x2="204" y2="0.5" stroke="#D2D1D1"/>
<line x1="208" y1="0.5" x2="212" y2="0.5" stroke="#D2D1D1"/>
<line x1="216" y1="0.5" x2="220" y2="0.5" stroke="#D2D1D1"/>
<line x1="224" y1="0.5" x2="228" y2="0.5" stroke="#D2D1D1"/>
<line x1="232" y1="0.5" x2="236" y2="0.5" stroke="#D2D1D1"/>
<line x1="240" y1="0.5" x2="244" y2="0.5" stroke="#D2D1D1"/>
<line x1="248" y1="0.5" x2="252" y2="0.5" stroke="#D2D1D1"/>
<line x1="256" y1="0.5" x2="260" y2="0.5" stroke="#D2D1D1"/>
<line x1="264" y1="0.5" x2="268" y2="0.5" stroke="#D2D1D1"/>
<line x1="272" y1="0.5" x2="276" y2="0.5" stroke="#D2D1D1"/>
<line x1="280" y1="0.5" x2="284" y2="0.5" stroke="#D2D1D1"/>
<line x1="288" y1="0.5" x2="292" y2="0.5" stroke="#D2D1D1"/>
<line x1="296" y1="0.5" x2="300" y2="0.5" stroke="#D2D1D1"/>
<line x1="304" y1="0.5" x2="308" y2="0.5" stroke="#D2D1D1"/>
<line x1="312" y1="0.5" x2="316" y2="0.5" stroke="#D2D1D1"/>
<line x1="320" y1="0.5" x2="324" y2="0.5" stroke="#D2D1D1"/>
<line x1="328" y1="0.5" x2="332" y2="0.5" stroke="#D2D1D1"/>
<line x1="336" y1="0.5" x2="340" y2="0.5" stroke="#D2D1D1"/>
<line x1="344" y1="0.5" x2="348" y2="0.5" stroke="#D2D1D1"/>
<line x1="352" y1="0.5" x2="356" y2="0.5" stroke="#D2D1D1"/>
<line x1="360" y1="0.5" x2="364" y2="0.5" stroke="#D2D1D1"/>
<line x1="368" y1="0.5" x2="372" y2="0.5" stroke="#D2D1D1"/>
<line x1="376" y1="0.5" x2="380" y2="0.5" stroke="#D2D1D1"/>
<line x1="384" y1="0.5" x2="388" y2="0.5" stroke="#D2D1D1"/>
<line x1="392" y1="0.5" x2="396" y2="0.5" stroke="#D2D1D1"/>
<line x1="400" y1="0.5" x2="404" y2="0.5" stroke="#D2D1D1"/>
<line x1="408" y1="0.5" x2="412" y2="0.5" stroke="#D2D1D1"/>
<line x1="416" y1="0.5" x2="420" y2="0.5" stroke="#D2D1D1"/>
<line x1="424" y1="0.5" x2="428" y2="0.5" stroke="#D2D1D1"/>
<line x1="432" y1="0.5" x2="436" y2="0.5" stroke="#D2D1D1"/>
<line x1="440" y1="0.5" x2="444" y2="0.5" stroke="#D2D1D1"/>
<line x1="448" y1="0.5" x2="452" y2="0.5" stroke="#D2D1D1"/>
<line x1="456" y1="0.5" x2="460" y2="0.5" stroke="#D2D1D1"/>
<line x1="464" y1="0.5" x2="468" y2="0.5" stroke="#D2D1D1"/>
<line x1="472" y1="0.5" x2="476" y2="0.5" stroke="#D2D1D1"/>
<line x1="480" y1="0.5" x2="484" y2="0.5" stroke="#D2D1D1"/>
<line x1="488" y1="0.5" x2="492" y2="0.5" stroke="#D2D1D1"/>
<line x1="496" y1="0.5" x2="500" y2="0.5" stroke="#D2D1D1"/>
<line x1="504" y1="0.5" x2="508" y2="0.5" stroke="#D2D1D1"/>
<line x1="512" y1="0.5" x2="516" y2="0.5" stroke="#D2D1D1"/>
<line x1="520" y1="0.5" x2="524" y2="0.5" stroke="#D2D1D1"/>
<line x1="528" y1="0.5" x2="532" y2="0.5" stroke="#D2D1D1"/>
<line x1="536" y1="0.5" x2="540" y2="0.5" stroke="#D2D1D1"/>
<line x1="544" y1="0.5" x2="548" y2="0.5" stroke="#D2D1D1"/>
<line x1="552" y1="0.5" x2="556" y2="0.5" stroke="#D2D1D1"/>
<line x1="560" y1="0.5" x2="564" y2="0.5" stroke="#D2D1D1"/>
<line x1="568" y1="0.5" x2="572" y2="0.5" stroke="#D2D1D1"/>
<line x1="576" y1="0.5" x2="580" y2="0.5" stroke="#D2D1D1"/>
<line x1="584" y1="0.5" x2="588" y2="0.5" stroke="#D2D1D1"/>
<line x1="592" y1="0.5" x2="596" y2="0.5" stroke="#D2D1D1"/>
<line x1="600" y1="0.5" x2="604" y2="0.5" stroke="#D2D1D1"/>
<line x1="608" y1="0.5" x2="612" y2="0.5" stroke="#D2D1D1"/>
<line x1="616" y1="0.5" x2="620" y2="0.5" stroke="#D2D1D1"/>
<line x1="624" y1="0.5" x2="628" y2="0.5" stroke="#D2D1D1"/>
<line x1="632" y1="0.5" x2="636" y2="0.5" stroke="#D2D1D1"/>
<line x1="640" y1="0.5" x2="644" y2="0.5" stroke="#D2D1D1"/>
<line x1="648" y1="0.5" x2="652" y2="0.5" stroke="#D2D1D1"/>
<line x1="656" y1="0.5" x2="660" y2="0.5" stroke="#D2D1D1"/>
<line x1="664" y1="0.5" x2="668" y2="0.5" stroke="#D2D1D1"/>
<line x1="672" y1="0.5" x2="676" y2="0.5" stroke="#D2D1D1"/>
<line x1="680" y1="0.5" x2="684" y2="0.5" stroke="#D2D1D1"/>
<line x1="688" y1="0.5" x2="692" y2="0.5" stroke="#D2D1D1"/>
<line x1="696" y1="0.5" x2="700" y2="0.5" stroke="#D2D1D1"/>
<line x1="704" y1="0.5" x2="708" y2="0.5" stroke="#D2D1D1"/>
<line x1="712" y1="0.5" x2="716" y2="0.5" stroke="#D2D1D1"/>
<line x1="720" y1="0.5" x2="724" y2="0.5" stroke="#D2D1D1"/>
<line x1="728" y1="0.5" x2="732" y2="0.5" stroke="#D2D1D1"/>
<line x1="736" y1="0.5" x2="740" y2="0.5" stroke="#D2D1D1"/>
<line x1="744" y1="0.5" x2="748" y2="0.5" stroke="#D2D1D1"/>
<line x1="752" y1="0.5" x2="756" y2="0.5" stroke="#D2D1D1"/>
<line x1="760" y1="0.5" x2="764" y2="0.5" stroke="#D2D1D1"/>
<line x1="768" y1="0.5" x2="772" y2="0.5" stroke="#D2D1D1"/>
<line x1="776" y1="0.5" x2="780" y2="0.5" stroke="#D2D1D1"/>
<line x1="784" y1="0.5" x2="788" y2="0.5" stroke="#D2D1D1"/>
<line x1="792" y1="0.5" x2="796" y2="0.5" stroke="#D2D1D1"/>
<line x1="800" y1="0.5" x2="804" y2="0.5" stroke="#D2D1D1"/>
<line x1="808" y1="0.5" x2="812" y2="0.5" stroke="#D2D1D1"/>
<line x1="816" y1="0.5" x2="820" y2="0.5" stroke="#D2D1D1"/>
<line x1="824" y1="0.5" x2="828" y2="0.5" stroke="#D2D1D1"/>
<line x1="832" y1="0.5" x2="836" y2="0.5" stroke="#D2D1D1"/>
<line x1="840" y1="0.5" x2="844" y2="0.5" stroke="#D2D1D1"/>
<line x1="848" y1="0.5" x2="852" y2="0.5" stroke="#D2D1D1"/>
<line x1="856" y1="0.5" x2="860" y2="0.5" stroke="#D2D1D1"/>
<line x1="864" y1="0.5" x2="868" y2="0.5" stroke="#D2D1D1"/>
<line x1="872" y1="0.5" x2="876" y2="0.5" stroke="#D2D1D1"/>
<line x1="880" y1="0.5" x2="884" y2="0.5" stroke="#D2D1D1"/>
<line x1="888" y1="0.5" x2="892" y2="0.5" stroke="#D2D1D1"/>
<line x1="896" y1="0.5" x2="900" y2="0.5" stroke="#D2D1D1"/>
<line x1="904" y1="0.5" x2="908" y2="0.5" stroke="#D2D1D1"/>
<line x1="912" y1="0.5" x2="916" y2="0.5" stroke="#D2D1D1"/>
<line x1="920" y1="0.5" x2="924" y2="0.5" stroke="#D2D1D1"/>
<line x1="928" y1="0.5" x2="932" y2="0.5" stroke="#D2D1D1"/>
<line x1="936" y1="0.5" x2="940" y2="0.5" stroke="#D2D1D1"/>
<line x1="944" y1="0.5" x2="948" y2="0.5" stroke="#D2D1D1"/>
<line x1="952" y1="0.5" x2="956" y2="0.5" stroke="#D2D1D1"/>
<line x1="960" y1="0.5" x2="964" y2="0.5" stroke="#D2D1D1"/>
<line x1="968" y1="0.5" x2="972" y2="0.5" stroke="#D2D1D1"/>
<line x1="976" y1="0.5" x2="980" y2="0.5" stroke="#D2D1D1"/>
<line x1="984" y1="0.5" x2="988" y2="0.5" stroke="#D2D1D1"/>
<line x1="992" y1="0.5" x2="996" y2="0.5" stroke="#D2D1D1"/>
<line x1="1000" y1="0.5" x2="1004" y2="0.5" stroke="#D2D1D1"/>
<line x1="1008" y1="0.5" x2="1012" y2="0.5" stroke="#D2D1D1"/>
<line x1="1016" y1="0.5" x2="1020" y2="0.5" stroke="#D2D1D1"/>
</svg>
