<svg width="1" height="244" viewBox="0 0 1 244" fill="none" xmlns="http://www.w3.org/2000/svg">
<line x1="0.5" y1="2.18552e-08" x2="0.5" y2="4" stroke="#D2D1D1"/>
<line x1="0.5" y1="8" x2="0.5" y2="12" stroke="#D2D1D1"/>
<line x1="0.5" y1="16" x2="0.5" y2="20" stroke="#D2D1D1"/>
<line x1="0.5" y1="24" x2="0.5" y2="28" stroke="#D2D1D1"/>
<line x1="0.5" y1="32" x2="0.5" y2="36" stroke="#D2D1D1"/>
<line x1="0.5" y1="40" x2="0.5" y2="44" stroke="#D2D1D1"/>
<line x1="0.5" y1="48" x2="0.5" y2="52" stroke="#D2D1D1"/>
<line x1="0.5" y1="56" x2="0.5" y2="60" stroke="#D2D1D1"/>
<line x1="0.5" y1="64" x2="0.5" y2="68" stroke="#D2D1D1"/>
<line x1="0.5" y1="72" x2="0.5" y2="76" stroke="#D2D1D1"/>
<line x1="0.5" y1="80" x2="0.5" y2="84" stroke="#D2D1D1"/>
<line x1="0.5" y1="88" x2="0.5" y2="92" stroke="#D2D1D1"/>
<line x1="0.5" y1="96" x2="0.5" y2="100" stroke="#D2D1D1"/>
<line x1="0.5" y1="104" x2="0.5" y2="108" stroke="#D2D1D1"/>
<line x1="0.5" y1="112" x2="0.5" y2="116" stroke="#D2D1D1"/>
<line x1="0.5" y1="120" x2="0.5" y2="124" stroke="#D2D1D1"/>
<line x1="0.5" y1="128" x2="0.5" y2="132" stroke="#D2D1D1"/>
<line x1="0.5" y1="136" x2="0.5" y2="140" stroke="#D2D1D1"/>
<line x1="0.5" y1="144" x2="0.5" y2="148" stroke="#D2D1D1"/>
<line x1="0.5" y1="152" x2="0.5" y2="156" stroke="#D2D1D1"/>
<line x1="0.5" y1="160" x2="0.5" y2="164" stroke="#D2D1D1"/>
<line x1="0.5" y1="168" x2="0.5" y2="172" stroke="#D2D1D1"/>
<line x1="0.5" y1="176" x2="0.5" y2="180" stroke="#D2D1D1"/>
<line x1="0.5" y1="184" x2="0.5" y2="188" stroke="#D2D1D1"/>
<line x1="0.5" y1="192" x2="0.5" y2="196" stroke="#D2D1D1"/>
<line x1="0.5" y1="200" x2="0.5" y2="204" stroke="#D2D1D1"/>
<line x1="0.5" y1="208" x2="0.5" y2="212" stroke="#D2D1D1"/>
<line x1="0.5" y1="216" x2="0.5" y2="220" stroke="#D2D1D1"/>
<line x1="0.5" y1="224" x2="0.5" y2="228" stroke="#D2D1D1"/>
<line x1="0.5" y1="232" x2="0.5" y2="236" stroke="#D2D1D1"/>
<line x1="0.5" y1="240" x2="0.5" y2="244" stroke="#D2D1D1"/>
</svg>
